<svg xmlns="http://www.w3.org/2000/svg" viewBox="0 0 491.67 311.81"><defs><linearGradient id="a" x1="454.89" y1="-1.46" x2="206.28" y2="257.27" gradientUnits="userSpaceOnUse"><stop offset="0" stop-color="#fadce2"/><stop offset=".04" stop-color="#f4c8d5"/><stop offset=".14" stop-color="#e693b5"/><stop offset=".27" stop-color="#cf3e81"/><stop offset=".35" stop-color="#bf065f"/><stop offset=".6" stop-color="#8f1053"/><stop offset=".87" stop-color="#621a47"/><stop offset="1" stop-color="#501e42"/></linearGradient><linearGradient id="b" x1="489.96" y1="3.77" x2="423.62" y2="313.1" gradientUnits="userSpaceOnUse"><stop offset="0" stop-color="#bf065f"/><stop offset=".17" stop-color="#b4085c"/><stop offset=".46" stop-color="#950f54"/><stop offset=".85" stop-color="#641a47"/><stop offset="1" stop-color="#501e42"/></linearGradient></defs><g data-name="Layer 2"><g data-name="Layer 1"><path d="M480 .92L89.72 102.54a8.53 8.53 0 0 0-2.31 1 7.79 7.79 0 0 0-1.87 1.82L.3 218.09a1.84 1.84 0 0 0-.3 1.18 1.51 1.51 0 0 0 1.05 1.4l420 90.74z" fill="url(#a)"/><path d="M151.48 165.6h25.4l-6.79 78.24s-16.7.84-15.22-16.14l4.4-50.92h-8.75zm216 61.12c4.15-3.84 6.68-12.12 7.78-24.66l3.25-37.45s.83-10 11.74-10h2.6L389 199.46c-.81 9.39-1.91 16-3.32 20.39A36.48 36.48 0 0 1 378 232.6c-6.7 7.49-16.44 11.31-28.92 11.31-12.75 0-22-3.37-27.49-10s-6.82-16.86-5.61-30.8l3.23-37.51H308.9l1-11h27l-.92 11-3 33.54c-.73 8.37-.75 14.54-.26 18.33a16.75 16.75 0 0 0 3.49 8.82c3.61 4.42 8.58 6.58 15.19 6.58a22.53 22.53 0 0 0 16.1-6.15m-177.64 10.71c-3.42-4.23-4.74-10.79-4-19.56l5.63-65 17-4.11L207 165.6h12.79l-.94 10.86H206.1l-3.74 43.15c-.41 4.63.09 8.11 1.46 10.35 1.28 2 3.32 3 6.24 3 9.6 0 9.24 9.2 9.24 9.2a70.44 70.44 0 0 1-12.24 1.67c-7.94 0-13.74-2.15-17.2-6.44m-28.06-85.64a9.26 9.26 0 0 1 9-8.3 7.49 7.49 0 0 1 7.57 8.3 9.24 9.24 0 0 1-9 8.31 7.49 7.49 0 0 1-7.59-8.31m-70.42 88.43c-7.91-3-13.85-7.26-16.9-10.87-8.07-9.58-11.6-22.78-9.66-36.82 4.93-35.71 30.54-51.71 54.21-51.71 11.32 0 22 1.86 30.45 6.49l-1.38 15.88h-11.66L137 157c-4.26-2.65-19.48-5.07-32 .06-14.73 6.77-21.08 24.3-21.9 36.08-.57 8.39.61 19.37 6.48 27.31s22.43 14.12 41.9 7.58C140 225 143.9 234 143.9 234l-.9.5c-12.86 7.65-25.16 9.84-35.81 9.11L234.1 271l17.7-32.4-19.75-61.84h-8.21l1-11.18h21.05l16.92 53 23.43-42.87s4-10.09 16.84-10.09h4.29l-59.1 105.18a17.45 17.45 0 0 1-1.91 2.87" fill="#fff"/><path d="M421.11 311.56l1.11.24c.66.14 1.51-1.06 1.9-2.61L491.44 46c.07-.31.15-.63.23-1v-3.48c-.09-.44-.19-.84-.28-1.19L480.22 0z" fill="url(#b)"/></g></g></svg>